<?xml version="1.0" encoding="UTF-8"?>
<svg width="1440px" height="894px" viewBox="0 0 1440 894" version="1.1" xmlns="http://www.w3.org/2000/svg" xmlns:xlink="http://www.w3.org/1999/xlink">
    <!-- Generator: Sketch 58 (84663) - https://sketch.com -->
    <title>Group 4</title>
    <desc>Created with Sketch.</desc>
    <g id="Page-1" stroke="none" stroke-width="1" fill="none" fill-rule="evenodd">
        <g id="Desktop">
            <g id="Group-4" transform="translate(-115.000000, -80.000000)">
                <polygon id="Rectangle" fill-opacity="0.599786932" fill="#E58D15" points="115.435271 80 1555 80 1555 974 45 729.42211"></polygon>
                <polyline id="Path-2" stroke="#FFFFFF" stroke-width="3" opacity="0.459170387" points="26.1771902 853.542496 220.933406 645.001857 0 525.64273 110.466703 303.868119 199.506843 890.06748 587.152836 686.100586 322.262788 385.626317 230.512646 628.733881 484.628955 880.725088 378.405972 10.3299048 220.933406 281.337232 26.1771902 70.5162184 621.760259 151.856098 827.221513 70.5162184 907.244406 725.34123 527.135666 353.854464 973.443141 161.36091 720.977529 781.213672 886.0407 890.06748 1322.98792 423.571576 1123.94249 342.602014 1227.33598 708.053258 1270.07464 853.542496 1570.05952 504.079866 1322.98792 580.936957 1123.94249 842.491447 1300.42406 962 1728 802.796026 1560.47378 414.52154 1322.98792 323.170099 1192.50489 414.52154 973.443141 423.571576 1135.52986 99.6348558 907.244406 84.1140113 1100.74175 281.337232 1439.64148 0 1560.47378 231.117003 1300.42406 231.117003 1192.50489 99.6348558"></polyline>
            </g>
        </g>
    </g>
</svg>