<svg xmlns="http://www.w3.org/2000/svg" viewBox="0 0 552.4 571.68"><defs><style>.cls-1{isolation:isolate;}.cls-2,.cls-5{fill:#e58d16;}.cls-3{fill:#6175e2;}.cls-4{fill:#f8f8f8;}.cls-5{opacity:0.3;mix-blend-mode:multiply;}.cls-6{fill:none;stroke:#6175e2;stroke-miterlimit:10;stroke-width:0.25px;}</style></defs><title>logoçprueba</title><g class="cls-1"><g id="Capa_2" data-name="Capa 2"><g id="Capa_1-2" data-name="Capa 1"><path class="cls-2" d="M511.61,554.23c-42.61,15.3-66.84,15.3-95.7,0a72.59,72.59,0,0,1-15.57,9.06c-66.86,29.46-102.86-43-109.4-53.76s-14-78.54-38.34-72S240.91,486.62,236.24,518s-32.26,32.72-53.77,36-22.66-15-7.94-34.59c17.59-23.42-27.59-35.52-21-67.79A106.7,106.7,0,0,1,163,425.18q-2.58,2-5.25,3.94c-33.67,23.84-49.56,2.34-57,13.09s24.7,40.67-24.39,41.61-38.5-73.64-15-93a111.12,111.12,0,0,1,23-14.19l-1.17-.08C64,368.35,58.59,303.35,45,316.92,33.34,328.6,63.25,362.41,41,362.39c-43,1.54-57.61-76-10-101.39s67.6,25.35,111.38,44.55,81.42-14.59,65.29-36.1C117,201.09,69.4,179.58,70.17,110.07A108.69,108.69,0,0,1,178.85,1.38q9.08.53,17.68,1.43C499.8,34.35,382,397.72,382,397.72s28-4.09,58.58-42.33,124.55-9.84,104.88,59c-7.8,28.41-37.14-9.83-49.16-12s-6.73,18.57-31.23,38.23S427.15,457,427.15,457s43,49.17,72.44,43.71,42.51-17.48,48.57-13.11S554.22,538.94,511.61,554.23Z"/><path class="cls-3" d="M403.93,290.36c-5.44,60.53-20.45,107.32-20.6,107.79l-2.61-.85c.15-.46,15.07-47,20.48-107.25,3.17-35.35,2.5-68.43-2-98.32C393.58,154.43,382,122,364.63,95.41a184.71,184.71,0,0,0-63.15-59.68c-28.9-16.68-64.23-27.3-105-31.55l-.3,0L194.72,4l-.64-.06-1.55-.15-.63,0c-.67-.07-1.33-.13-2-.18l-1.34-.12-1.2-.1-2.13-.16c-.71-.06-1.42-.11-2.14-.15l-2.15-.15-2.12-.13A107.25,107.25,0,0,0,71.54,110.07c-.15,14.28,1.75,26.69,5.82,37.94,3.86,10.66,9.83,20.65,18.23,30.53C111.93,197.75,137,216,168.82,239.12c11.89,8.64,25.37,18.44,39.67,29.23l.16.12.11.16c6,8.05,5.37,18.26-1.81,27.31-6.45,8.15-17.48,14.37-30.77,16.14h0a59.46,59.46,0,0,1-7.75.51,66.19,66.19,0,0,1-26.6-5.78c-15.13-6.64-27.22-16.8-38.91-26.62-21.86-18.37-40.73-34.23-71.27-18a53,53,0,0,0-25.2,29.2,63.91,63.91,0,0,0-1.89,36.47c2.3,9.47,6.61,17.58,12.46,23.46A31.62,31.62,0,0,0,39.32,361c.51,0,1,0,1.61,0H41c3.14,0,5.16-.69,6.19-2.11,2.26-3.14-.11-10.24-2.4-17.1-3.12-9.35-6.66-19.94-.73-25.87,1.85-1.85,3.76-2.57,5.67-2.13,5.52,1.26,9.28,12,14.05,25.63C69,354.36,74.9,371.25,83.56,375.15l.58,0A190.53,190.53,0,0,1,109,365.7a226.48,226.48,0,0,1,29.84-7.13l.4,2.72a226.13,226.13,0,0,0-29.43,7A188.23,188.23,0,0,0,85,377.83l-.33.16-1.76-.13-.21-.09c-9.89-4.2-16.06-21.85-21.51-37.42-3.94-11.28-8-22.94-12.06-23.86-.35-.08-1.4-.32-3.12,1.4-4.72,4.72-1.61,14,1.39,23.05,2.63,7.87,5.11,15.3,2,19.57-1.58,2.19-4.33,3.26-8.41,3.26-.6,0-1.18,0-1.73,0a34.27,34.27,0,0,1-24.22-10.5C8.86,347,4.3,338.49,1.88,328.53a66.57,66.57,0,0,1,2-38,55.7,55.7,0,0,1,26.49-30.69c14.71-7.83,27.74-9.18,41-4.22,11.74,4.38,22.22,13.19,33.32,22.51,11.54,9.7,23.47,19.73,38.25,26.21a63.54,63.54,0,0,0,24.7,5.55c16.18.24,29.83-6.35,37.17-15.6,6.3-8,7-16.84,1.88-23.81C192.45,259.7,179,250,167.2,241.34c-31.93-23.22-57.15-41.56-73.7-61-8.62-10.14-14.75-20.4-18.72-31.37-4.19-11.57-6.15-24.29-6-38.9A109.18,109.18,0,0,1,89.21,46.17,111,111,0,0,1,101,32.24,109.35,109.35,0,0,1,178.86,0h.08l2.18.14,2.16.14,2.16.16,2.13.16,1.21.1,1.36.12q1,.08,2,.18l.65.06,1.55.15.65.06,1.43.15.31,0c78.32,8.16,135.58,39.27,170.2,92.47,17.54,27,29.31,59.73,35,97.44C406.45,221.47,407.13,254.78,403.93,290.36Z"/><path class="cls-3" d="M75.42,485.2c-19.65,0-28.18-11.82-31.89-21.83-4.1-11.11-4.38-26-.75-40.86,3.47-14.24,10.1-26.5,17.73-32.79a112.1,112.1,0,0,1,23.3-14.37c22.76-10.79,47.54-15.51,53.59-16.55A1.38,1.38,0,0,1,139,360h0a1.38,1.38,0,0,1-1.13,1.56c-5.89,1-30.4,5.66-52.89,16.32a109.43,109.43,0,0,0-22.72,14c-7.19,5.93-13.47,17.64-16.81,31.32-3.5,14.34-3.26,28.65.66,39.26,3.4,9.18,11.24,20,29.33,20h.88c1.84,0,3.59-.11,5.2-.23,10.44-.74,16.88-3.09,19.69-7.19,3.26-4.75,1.22-11.44-.76-17.91-1.84-6-3.57-11.72-.85-15.68,3.38-4.91,8.25-4.09,14.42-3.05,9.08,1.53,22.79,3.85,42.88-10.38,1.72-1.22,3.47-2.53,5.2-3.9l1.7,2.16c-1.76,1.39-3.55,2.73-5.31,4-21,14.89-35.41,12.46-44.93,10.85-6.28-1.06-9.41-1.42-11.69,1.9-2,2.87-.43,7.94,1.21,13.32,2.07,6.76,4.41,14.43.4,20.27-3.31,4.83-10.43,7.57-21.76,8.38-1.66.11-3.46.19-5.35.23Z"/><path class="cls-3" d="M428.41,537.91a18.12,18.12,0,0,1-.83,3.53c-1.47,4.37-4.56,8.58-9.19,12.53-.52.46-1.06.9-1.62,1.34-.23.18-.47.37-.71.54a75.75,75.75,0,0,1-15.16,8.7c-1.84.81-3.68,1.55-5.5,2.22-.66.25-1.32.49-2,.71a74.18,74.18,0,0,1-24,4.2c-16.2,0-31.55-6-45.85-18-16.89-14.11-27.62-32.82-32.21-40.8-.64-1.13-1.15-2-1.55-2.68-1.92-3.14-3.78-10.39-6.13-19.56-4.79-18.66-11.35-44.21-22.5-50.72a10.22,10.22,0,0,0-8.18-1.1c-7,1.88-11.15,7-13.12,16.24-1.83,8.51-1.56,19.32-1.27,30.76.27,10.88.55,22.12-1,32.29-2,13.36-8.21,22.65-19,28.4-9.29,4.94-20.78,6.58-30.92,8-1.73.25-3.36.48-5,.73a29.84,29.84,0,0,1-6.61.34c-7.12-.49-10.2-4-11.52-6.95-3.27-7.14,0-18.42,8.88-30.17,8.38-11.15,1.6-19.32-7-29.66-4-4.82-8.14-9.81-11.09-15.6a32.54,32.54,0,0,1-3.21-22,108.9,108.9,0,0,1,9.6-26.74A88.29,88.29,0,0,1,168,414.4c13.71-19.26,30.22-25.44,35.12-26.91a1.37,1.37,0,0,1,1.73,1h0a1.38,1.38,0,0,1-.94,1.62,53.53,53.53,0,0,0-10.42,4.61A72.71,72.71,0,0,0,170.19,416a86.58,86.58,0,0,0-6,9.83,106,106,0,0,0-9.34,26,29.94,29.94,0,0,0,3,20.15c2.81,5.52,6.85,10.39,10.76,15.09,8.61,10.38,16.75,20.19,7.07,33.07-8.09,10.77-11.38,21.26-8.58,27.38,1.48,3.23,4.58,5,9.21,5.35a27.54,27.54,0,0,0,6-.32c1.65-.25,3.29-.48,5-.73,20.36-2.9,43.43-6.18,47.59-34.11,1.48-9.93,1.21-21.05.94-31.81-.58-23.14-1.13-45,16.43-49.72a13,13,0,0,1,10.28,1.38c12.14,7.08,18.86,33.28,23.77,52.4,2.21,8.6,4.11,16,5.82,18.83.41.68.93,1.59,1.59,2.73,4.51,7.86,15.07,26.26,31.58,40.07,20.42,17.06,43,21.53,67.24,13.26l1.38-.49c1.94-.7,3.91-1.49,5.87-2.35a72,72,0,0,0,15.29-8.89c5.1-4,8.44-8.25,9.91-12.59a15.1,15.1,0,0,0,.74-3.94c.19-4.24-1.51-8.69-6.23-10.9a10.62,10.62,0,0,0-7.95-.4c-.22.07-.43.15-.65.21-7.7,2.47-15,1.58-20.22-2.48-5.81-4.55-8.51-12.72-7.6-23,1-10.87-.12-28.75-6.06-46.31a97.85,97.85,0,0,0-6.7-15.41A79.66,79.66,0,0,0,363.69,428a67.45,67.45,0,0,0-22.15-19,1.38,1.38,0,0,1-.59-1.83,1.41,1.41,0,0,1,1.24-.76,1.32,1.32,0,0,1,.64.16,70.33,70.33,0,0,1,23.05,19.81,82.18,82.18,0,0,1,7.2,11.31l0,0a100.84,100.84,0,0,1,6.51,15.16c6.08,18,7.19,36.28,6.2,47.43-.83,9.32,1.5,16.63,6.55,20.58,4.19,3.28,10.11,4.12,16.46,2.4.61-.16,1.22-.35,1.83-.56a13.32,13.32,0,0,1,10,.51A13.93,13.93,0,0,1,428.41,537.91Z"/><path class="cls-3" d="M546,525.76c-4.81,9.75-14.6,22.83-33.92,29.76-21.51,7.72-38.37,11.59-53.5,11.59a81.65,81.65,0,0,1-18.4-2.05,99.85,99.85,0,0,1-24.12-9.21l-.79-.41,1.29-2.42,1.83,1a93,93,0,0,0,25.27,9c18.84,3.56,39,.22,67.49-10,18.46-6.63,27.8-19.1,32.39-28.39,5.67-11.51,6.74-23,5.84-30-.47-3.59-1.38-5.4-2-5.86-2.44-1.76-7.2.18-14.4,3.12a159,159,0,0,1-33.11,10.23c-11,2-24.91-2.9-41.29-14.67-17.76-12.76-32.3-29.32-32.44-29.48l-2.85-3.27,4.21,1s3.29.72,9.4-.89c5.68-1.5,15-5.35,27.36-15.24,12.6-10.12,17.09-20.39,20.37-27.89,3-6.89,5.18-11.86,12-10.63,4.08.75,9.47,4.91,15.72,9.72,9,6.94,19.18,14.79,25.71,12.25,2.75-1.07,4.82-4.08,6.16-9,4.26-14.92,3.38-28.59-2.63-40.64-5.26-10.54-14.29-19.34-26.12-25.44a74.13,74.13,0,0,0-40.44-8c-14.11,1.33-25.94,7.12-33.3,16.33-8.8,11-23.09,26.15-41.18,35.86-10.91,5.85-18,6.93-18.26,7l-.4-2.72c.06,0,7-1.09,17.52-6.76,9.72-5.24,24.58-15.58,40.18-35.07,7.83-9.79,20.32-15.95,35.18-17.35a77.06,77.06,0,0,1,42,8.31c12.35,6.38,21.8,15.6,27.32,26.67,6.32,12.68,7.27,27,2.82,42.6-1.6,5.83-4.16,9.36-7.82,10.79-8,3.1-18.81-5.26-28.38-12.64-5.71-4.41-11.11-8.57-14.53-9.19-4.46-.81-5.88,2-8.95,9-3.2,7.32-8,18.39-21.17,28.94-17.74,14.24-29.86,16.69-35.52,16.89,4.72,5.06,16.29,16.93,29.72,26.58,15.75,11.32,28.93,16.09,39.19,14.19a156.53,156.53,0,0,0,32.57-10.06c8.34-3.41,13.37-5.46,17.05-2.81,1.95,1.4,2.78,5,3.13,7.74C553.05,501.56,552,513.71,546,525.76Z"/><path class="cls-3" d="M109.36,367a190.78,190.78,0,0,0-25,9.58l-1.17-.08C64,368.35,58.59,303.35,45,316.92,33.34,328.6,63.25,362.41,41,362.39c-.57,0-1.13,0-1.69,0a57,57,0,0,1-14.72-40.3c1.13-29.85,28.49-30.59,37.74-20.84C72.68,312.2,86.76,353,95.54,359.93,102.21,365.21,106.35,365.41,109.36,367Z"/><path class="cls-3" d="M169.07,415.2a86.88,86.88,0,0,0-6.12,10q-2.58,2-5.25,3.94c-33.67,23.84-49.56,2.34-57,13.09-7.13,10.34,22.3,38.41-19.12,41.37,2.09-3.64,3.62-9.09,2.77-17.08-2-19.27-10.33-27.62.24-39.82S129.25,420.42,169.07,415.2Z"/><path class="cls-3" d="M400.34,563.29c-66.86,29.46-102.86-43-109.4-53.76s-14-78.54-38.34-72S240.91,486.62,236.24,518s-32.26,32.72-53.77,36a28.62,28.62,0,0,1-6.31.33c14.33-1.94,33.6-7.78,39.8-24.82,10.28-28.26-1.29-58,5.14-80.06s32.49-38.13,55.1-17.57,26.78,68.09,43,88,51.55,46.25,82.39,21.2a232,232,0,0,0,18.47-16.54C430.33,529.27,433.66,548.48,400.34,563.29Z"/><path class="cls-3" d="M511.61,554.23c-42.61,15.3-66.84,15.3-95.7,0,5.72-4.49,8.95-9.05,10.36-13.23,36,5,69.17-3.41,88.38-13.47,16.51-8.65,28.93-23.18,36.09-33.15C552.62,509,546,541.9,511.61,554.23Z"/><path class="cls-3" d="M538.49,424.26c-11.9,4.63-32.57-20.15-42.17-21.89-12-2.19-6.73,18.57-31.23,38.23S427.15,457,427.15,457s-6.13-5.71-15-13.94c12-1.95,20.83-12.18,31.24-20.72,11.56-9.49,17.34-45.75,40.12-50.89s33.75,18,38.89,34C524.91,413.46,532,419.85,538.49,424.26Z"/><path class="cls-3" d="M427.15,457a1.37,1.37,0,0,1-1.94.07c-2.09-1.95-7.29-6.78-14-13-2.86-2.65-6-5.55-9.34-8.61a1.37,1.37,0,0,1-.09-1.94h0a1.38,1.38,0,0,1,1.95-.08L413,442c6.75,6.23,11.95,11.07,14,13a1.37,1.37,0,0,1,.06,1.94Z"/><path class="cls-4" d="M292.74,227s-10,20.6-33.67,17.29S234,221.06,234,221.06C255,225.57,292.74,227,292.74,227Z"/><path class="cls-3" d="M264.09,246a36.69,36.69,0,0,1-5.21-.37c-12.76-1.78-19.23-8.31-22.41-13.48a26.63,26.63,0,0,1-3.87-11l-.13-1.83,1.79.39c20.64,4.43,58.15,5.85,58.53,5.86l2.1.08-.92,1.89a35.54,35.54,0,0,1-8.28,10.33A32.44,32.44,0,0,1,264.09,246Zm-28.45-23.17a25.51,25.51,0,0,0,3.24,8c4.18,6.72,11,10.78,20.38,12.09s17.64-1,24.55-7a35.38,35.38,0,0,0,6.6-7.65C282.21,227.86,253.72,226.36,235.64,222.81Z"/><path class="cls-3" d="M255.89,224.32a2.8,2.8,0,0,0-.44,1.46c0,2.61,4,4.72,8.9,4.72s8.83-2.07,8.9-4.65"/><path class="cls-4" d="M333.82,224.33s10,20.61,33.66,17.3,25.1-23.2,25.1-23.2C371.58,223,333.82,224.33,333.82,224.33Z"/><path class="cls-3" d="M362.47,243.36a32.44,32.44,0,0,1-21.6-8.1,36,36,0,0,1-8.29-10.33l-.92-1.9,2.11-.07c.38,0,37.89-1.43,58.53-5.87l1.79-.38-.13,1.82a26.65,26.65,0,0,1-3.87,11c-3.18,5.16-9.65,11.69-22.42,13.48A38.08,38.08,0,0,1,362.47,243.36Zm-26.33-17.75a35.48,35.48,0,0,0,6.61,7.64c6.91,6,15.17,8.33,24.54,7s16.21-5.38,20.39-12.1a25.11,25.11,0,0,0,3.23-8C372.83,223.74,344.35,225.24,336.14,225.61Z"/><path class="cls-3" d="M353.31,223.22c.06,2.58,4,4.66,8.89,4.66s8.9-2.12,8.9-4.72a2.82,2.82,0,0,0-.43-1.47"/><ellipse class="cls-3" cx="159.65" cy="32.49" rx="20.65" ry="5.75" transform="translate(-1.69 55.11) rotate(-19.48)"/><ellipse class="cls-3" cx="153.34" cy="50.28" rx="11.36" ry="3.16" transform="translate(-7.99 54.03) rotate(-19.48)"/><ellipse class="cls-3" cx="191.82" cy="32.49" rx="11.75" ry="3.27" transform="translate(0.15 65.84) rotate(-19.48)"/><path class="cls-3" d="M293.79,228.37l-1.1,0c-.38,0-38.13-1.44-59-5.93-5.09-1.09-8.74-2.25-11.15-3.55l1.3-2.42a43.09,43.09,0,0,0,10.43,3.29c18.65,4,51.05,5.55,57.42,5.82l7.51-29.07,2.66.69Z"/><path class="cls-3" d="M332.77,225.74l-8.07-31.2,2.67-.69,7.5,29.06c6.38-.27,38.78-1.81,57.43-5.82a42,42,0,0,0,10.42-3.29l1.31,2.42c-2.41,1.3-6.06,2.46-11.16,3.56-20.87,4.49-58.62,5.91-59,5.92Z"/><path class="cls-4" d="M39.35,353.11c3.83,0,3.84-5.95,0-5.95s-3.83,5.95,0,5.95Z"/><path class="cls-4" d="M34.81,329.12c3.83,0,3.84-6,0-6s-3.83,6,0,6Z"/><path class="cls-4" d="M42.6,311.6c3.83,0,3.83-6,0-6s-3.84,6,0,6Z"/><path class="cls-4" d="M62.7,322c3.83,0,3.84-6,0-6s-3.84,6,0,6Z"/><path class="cls-4" d="M72.43,346.63c3.83,0,3.84-6,0-6s-3.84,6,0,6Z"/><path class="cls-4" d="M84.1,367.38c3.83,0,3.84-5.95,0-5.95s-3.83,5.95,0,5.95Z"/><path class="cls-4" d="M93.83,474.39c3.83,0,3.84-5.95,0-5.95s-3.83,5.95,0,5.95Z"/><path class="cls-4" d="M92.54,448.45c3.83,0,3.83-5.95,0-5.95s-3.84,5.95,0,5.95Z"/><path class="cls-4" d="M104.86,432.24c3.83,0,3.83-6,0-6s-3.84,6,0,6Z"/><path class="cls-4" d="M132.1,431.59c3.83,0,3.83-6,0-6s-3.84,6,0,6Z"/><path class="cls-4" d="M154.15,427.05c3.83,0,3.83-6,0-6s-3.84,6,0,6Z"/><path class="cls-4" d="M220.3,539.89c3.83,0,3.84-5.95,0-5.95s-3.84,5.95,0,5.95Z"/><path class="cls-4" d="M228.73,520.44c3.83,0,3.84-6,0-6s-3.84,6,0,6Z"/><path class="cls-4" d="M228.73,493.85c3.83,0,3.84-6,0-6s-3.84,6,0,6Z"/><path class="cls-4" d="M229.38,467.26c3.83,0,3.84-6,0-6s-3.84,6,0,6Z"/><path class="cls-4" d="M233.27,447.15c3.83,0,3.84-5.95,0-5.95s-3.84,5.95,0,5.95Z"/><path class="cls-4" d="M252.73,432.88c3.83,0,3.83-5.95,0-5.95s-3.84,5.95,0,5.95Z"/><path class="cls-4" d="M276.72,447.8c3.83,0,3.84-5.95,0-5.95s-3.83,5.95,0,5.95Z"/><path class="cls-4" d="M285.8,468.55c3.83,0,3.84-5.95,0-5.95s-3.83,5.95,0,5.95Z"/><path class="cls-4" d="M292.29,490c3.83,0,3.84-6,0-6s-3.84,6,0,6Z"/><path class="cls-4" d="M299.42,511.36c3.83,0,3.84-5.95,0-5.95s-3.83,5.95,0,5.95Z"/><path class="cls-4" d="M310.45,529.52c3.83,0,3.84-6,0-6s-3.84,6,0,6Z"/><path class="cls-4" d="M332.5,550.92c3.83,0,3.84-5.95,0-5.95s-3.84,5.95,0,5.95Z"/><path class="cls-4" d="M363,563.89c3.83,0,3.84-5.95,0-5.95s-3.84,5.95,0,5.95Z"/><path class="cls-4" d="M389.57,560.65c3.83,0,3.84-5.95,0-5.95s-3.83,5.95,0,5.95Z"/><path class="cls-4" d="M415.51,546.38c3.83,0,3.84-6,0-6s-3.83,6,0,6Z"/><path class="cls-4" d="M436,554.55c3.83,0,3.83-5.95,0-5.95s-3.84,5.95,0,5.95Z"/><path class="cls-4" d="M465.28,557.23c3.83,0,3.84-6,0-6s-3.83,6,0,6Z"/><path class="cls-4" d="M490.41,552.7c3.83,0,3.84-6,0-6s-3.84,6,0,6Z"/><path class="cls-4" d="M516.57,543c3.83,0,3.83-5.95,0-5.95s-3.84,5.95,0,5.95Z"/><path class="cls-4" d="M534.07,530.87c3.83,0,3.84-6,0-6s-3.83,6,0,6Z"/><path class="cls-4" d="M435,448.07c3.83,0,3.83-5.95,0-5.95s-3.84,5.95,0,5.95Z"/><path class="cls-4" d="M457.46,435.3c3.83,0,3.83-5.95,0-5.95s-3.84,5.95,0,5.95Z"/><path class="cls-4" d="M468.58,417.18c3.83,0,3.83-6,0-6s-3.84,6,0,6Z"/><path class="cls-4" d="M479.29,395.76c3.83,0,3.83-6,0-6s-3.84,6,0,6Z"/><path class="cls-4" d="M502.56,392.46c3.83,0,3.84-5.95,0-5.95s-3.84,5.95,0,5.95Z"/><path class="cls-4" d="M514.1,409.35c3.83,0,3.83-6,0-6s-3.84,6,0,6Z"/><path class="cls-5" d="M176.18,312.08h0a45.1,45.1,0,0,1-8.54-2.24c16.18.24,29.83-6.35,37.17-15.6,6.3-8,7-16.84,1.88-23.81C192.45,259.7,179,250,167.2,241.34c-31.93-23.22-57.15-41.56-73.7-61-8.62-10.14-14.75-20.4-18.72-31.37-4.19-11.57-6.15-24.29-6-38.9A109.18,109.18,0,0,1,89.21,46.17c-.75,2.57-1.45,5.29-2.07,8.13-5.17,23.65-4.91,56,17.72,89.33,44.32,65.3,110.93,101.73,115.44,124.76C224.77,291.18,210.52,317.34,176.18,312.08Z"/><path class="cls-3" d="M382.07,399.12a1.49,1.49,0,0,0,0-3,1.49,1.49,0,0,0,0,3Z"/><path class="cls-5" d="M410.89,525.53c-7.7,2.47-15,1.58-20.22-2.48-5.81-4.55-8.51-12.72-7.6-23,1-10.87-.12-28.75-6.06-46.31a97.85,97.85,0,0,0-6.7-15.41l2.77-.66,0,0a63.59,63.59,0,0,1,19.51,46.45c0,11.24,5.44,26.87,16.21,39.12Q409.83,524.42,410.89,525.53Z"/><path class="cls-6" d="M443.66,563l-3.48,2.11a99.85,99.85,0,0,1-24.12-9.21,75.75,75.75,0,0,1-15.16,8.7c-1.84.81-3.68,1.55-5.5,2.22l-1.49-2.38c1.94-.7,3.91-1.49,5.87-2.35a72,72,0,0,0,15.29-8.89c5.1-4,8.44-8.25,9.91-12.59a15.1,15.1,0,0,0,.74-3.94c.88.45,1.77.89,2.69,1.29a18.12,18.12,0,0,1-.83,3.53c-1.47,4.37-4.56,8.58-9.19,12.53A93,93,0,0,0,443.66,563Z"/></g></g></g></svg>